<?xml version="1.0" standalone="no"?><!DOCTYPE svg PUBLIC "-//W3C//DTD SVG 1.1//EN" "http://www.w3.org/Graphics/SVG/1.1/DTD/svg11.dtd"><svg t="1528946627927" class="icon" style="" viewBox="0 0 1024 1024" version="1.1" xmlns="http://www.w3.org/2000/svg" p-id="3283" xmlns:xlink="http://www.w3.org/1999/xlink" width="200" height="200"><defs><style type="text/css"></style></defs><path d="M960 858.112h-896c-14.336 0-25.6-11.264-25.6-25.6v-208.896c0-9.216 5.12-17.408 12.8-22.016 32.256-18.432 51.2-51.2 51.2-88.576 0-36.352-18.944-69.632-51.2-88.576-7.68-4.608-12.8-12.8-12.8-22.016V192c0-14.336 11.264-25.6 25.6-25.6h896c14.336 0 25.6 11.264 25.6 25.6v210.432c0 9.216-5.12 17.408-12.8 22.016-32.256 18.432-51.2 51.2-51.2 88.576 0 36.352 18.944 69.632 51.2 88.576 7.68 4.608 12.8 12.8 12.8 22.016v208.896c0 14.336-11.264 25.6-25.6 25.6z m-870.4-51.2h844.8v-169.472c-40.448-29.184-64-74.752-64-124.416 0-50.176 23.552-95.744 64-124.416V217.6h-844.8v171.008C130.048 417.792 153.6 463.36 153.6 513.024c0 50.176-23.552 95.744-64 124.416v169.472zM505.856 742.4c-14.336 0-25.6-11.264-25.6-25.6v-128H375.296c-14.336 0-25.6-11.264-25.6-25.6s11.264-25.6 25.6-25.6h104.96V450.56H378.88c-14.336 0-25.6-11.264-25.6-25.6s11.264-25.6 25.6-25.6h31.232l-51.2-66.048c-8.704-11.264-6.656-27.136 4.608-35.84 11.264-8.704 27.136-6.656 35.84 4.608l59.904 76.8c4.608 6.144 6.144 13.824 5.12 20.992h101.376c-3.072-7.168-3.072-15.872 1.536-23.04l48.128-81.92c7.168-12.288 23.04-16.384 34.816-9.216 12.288 7.168 16.384 23.04 9.216 34.816L612.352 399.36h28.16c14.336 0 25.6 11.264 25.6 25.6s-11.264 25.6-25.6 25.6h-109.056v87.04h105.472c14.336 0 25.6 11.264 25.6 25.6s-11.264 25.6-25.6 25.6h-105.472v128c0 14.336-11.264 25.6-25.6 25.6z" p-id="3284" fill="#cdcdcd"></path></svg>