<?xml version="1.0" standalone="no"?><!DOCTYPE svg PUBLIC "-//W3C//DTD SVG 1.1//EN" "http://www.w3.org/Graphics/SVG/1.1/DTD/svg11.dtd"><svg t="1528948353488" class="icon" style="" viewBox="0 0 1024 1024" version="1.1" xmlns="http://www.w3.org/2000/svg" p-id="6288" xmlns:xlink="http://www.w3.org/1999/xlink" width="200" height="200"><defs><style type="text/css"></style></defs><path d="M732.5 371.8v-95H387.8c-23.1 0-41.7 19.9-41.7 44.4v211.6c0 90.5 68.9 163.9 153.9 163.9h78.6c111.3-61.8 144.2-232.4 153.9-324.9z" fill="#FCEE21" p-id="6289"></path><path d="M732.5 532.8v-161c-9.7 92.5-42.6 263.1-153.9 324.9 85 0.1 153.9-73.3 153.9-163.9z" fill="#F8B62D" p-id="6290"></path><path d="M723.7 925.2c0 11.1-9.1 20.2-20.2 20.2H344.4c-11.1 0-20.2-9.1-20.2-20.2s9.1-20.2 20.2-20.2h359.1c11.1 0 20.2 9.1 20.2 20.2z" fill="#FCEE21" p-id="6291"></path><path d="M288.5 310.3c-50.1 0-90.6 40.6-90.6 90.6s40.6 90.6 90.6 90.6" fill="#F8B62D" p-id="6292"></path><path d="M288.5 503.6c-56.6 0-102.6-46-102.6-102.6s46-102.6 102.6-102.6c6.6 0 12 5.4 12 12s-5.4 12-12 12c-43.4 0-78.7 35.3-78.7 78.6s35.3 78.6 78.7 78.6c6.6 0 12 5.4 12 12s-5.3 12-12 12z" fill="#3E3A39" p-id="6293"></path><path d="M736.6 310.3c50.1 0 90.6 40.6 90.6 90.6s-40.6 90.6-90.6 90.6" fill="#F8B62D" p-id="6294"></path><path d="M736.6 503.6c-6.6 0-12-5.4-12-12s5.4-12 12-12c43.4 0 78.6-35.3 78.6-78.6s-35.3-78.6-78.6-78.6c-6.6 0-12-5.4-12-12s5.4-12 12-12c56.6 0 102.6 46 102.6 102.6s-46 102.6-102.6 102.6z" fill="#3E3A39" p-id="6295"></path><path d="M478.8 879.3V703.7h67.5v175.6" fill="#F8B62D" p-id="6296"></path><path d="M546.3 891.3c-6.6 0-12-5.4-12-12V715.7h-43.6v163.6c0 6.6-5.4 12-12 12s-12-5.4-12-12V703.7c0-6.6 5.4-12 12-12h67.5c6.6 0 12 5.4 12 12v175.6c0.1 6.7-5.2 12-11.9 12z" fill="#3E3A39" p-id="6297"></path><path d="M698.2 954.6H326.9c-23.2 0-42.1-18.9-42.1-42.1s18.9-42.1 42.1-42.1h371.4c23.2 0 42.1 18.9 42.1 42.1s-19 42.1-42.2 42.1z m-371.3-60.2c-10 0-18.1 8.1-18.1 18.1s8.1 18.1 18.1 18.1h371.4c10 0 18.1-8.1 18.1-18.1s-8.1-18.1-18.1-18.1H326.9zM557.3 708.7h-89.4c-103.2 0-187.2-84-187.2-187.2V247.8c0-6.6 5.4-12 12-12h47.6c6.6 0 12 5.4 12 12s-5.4 12-12 12h-35.6v261.7c0 90 73.2 163.2 163.2 163.2h89.4c90 0 163.2-73.2 163.2-163.2V259.8H478.8c-6.6 0-12-5.4-12-12s5.4-12 12-12h253.7c6.6 0 12 5.4 12 12v273.7c0 103.3-84 187.2-187.2 187.2z" fill="#3E3A39" p-id="6298"></path><path d="M424.8 259.8h-45.4c-6.6 0-12-5.4-12-12s5.4-12 12-12h45.4c6.6 0 12 5.4 12 12-0.1 6.6-5.4 12-12 12zM812.3 259.8h-80c-6.6 0-12-5.4-12-12s5.4-12 12-12h80c6.6 0 12 5.4 12 12s-5.3 12-12 12zM292.8 259.8h-80.1c-6.6 0-12-5.4-12-12s5.4-12 12-12h80.1c6.6 0 12 5.4 12 12s-5.4 12-12 12z" fill="#3E3A39" p-id="6299"></path><path d="M251 95.1c0-17.9 14.6-32.5 32.5-32.5S316 77.2 316 95.1s-14.6 32.5-32.5 32.5S251 113 251 95.1z m16 0c0 9.1 7.4 16.5 16.5 16.5s16.5-7.4 16.5-16.5-7.4-16.5-16.5-16.5S267 86 267 95.1z" fill="#47B7F8" p-id="6300"></path><path d="M810.1 179.4h14.2v-14.2c0-3.8 3.1-6.9 6.9-6.9 3.8 0 6.9 3.1 6.9 6.9v14.2h14.2c3.8 0 6.9 3.1 6.9 6.9s-3.1 6.9-6.9 6.9H838v14.2c0 3.8-3.1 6.9-6.9 6.9-3.8 0-6.9-3.1-6.9-6.9v-14.2H810c-3.8 0-6.9-3.1-6.9-6.9s3.2-6.9 7-6.9zM92.1 317.5h14.2v-14.2c0-3.8 3.1-6.9 6.9-6.9 3.8 0 6.9 3.1 6.9 6.9v14.2h14.2c3.8 0 6.9 3.1 6.9 6.9s-3.1 6.9-6.9 6.9h-14.2v14.2c0 3.8-3.1 6.9-6.9 6.9-3.8 0-6.9-3.1-6.9-6.9v-14.2H92.1c-3.8 0-6.9-3.1-6.9-6.9s3.1-6.9 6.9-6.9z" fill="#F7E42F" p-id="6301"></path><path d="M827.6 544.6h16.5v-16.5c0-4.4 3.6-8 8-8s8 3.6 8 8v16.5h16.5c4.4 0 8 3.6 8 8s-3.6 8-8 8h-16.5v16.5c0 4.4-3.6 8-8 8s-8-3.6-8-8v-16.5h-16.5c-4.4 0-8-3.6-8-8s3.6-8 8-8z" fill="#F8B62D" p-id="6302"></path><path d="M701.9 107.1m-12 0a12 12 0 1 0 24 0 12 12 0 1 0-24 0Z" fill="#F8B62D" p-id="6303"></path><path d="M166.2 170.3m-16 0a16 16 0 1 0 32 0 16 16 0 1 0-32 0Z" fill="#F8B62D" p-id="6304"></path><path d="M625.6 175.8m-16 0a16 16 0 1 0 32 0 16 16 0 1 0-32 0Z" fill="#F7E42F" p-id="6305"></path><path d="M891.9 340c0-17.9 14.6-32.5 32.5-32.5s32.5 14.6 32.5 32.5-14.6 32.5-32.5 32.5-32.5-14.6-32.5-32.5z m16 0c0 9.1 7.4 16.5 16.5 16.5s16.5-7.4 16.5-16.5-7.4-16.5-16.5-16.5-16.5 7.4-16.5 16.5z" fill="#F8B62D" p-id="6306"></path><path d="M513.5 101.3c1.7-1.7 4.5-1.7 6.3 0 0.8 0.8 1.3 2 1.3 3.1s-0.5 2.3-1.3 3.1l-14.2 14.2c-0.8 0.8-1.9 1.3-3.1 1.3s-2.3-0.5-3.1-1.3c-1.7-1.7-1.7-4.5 0-6.3l14.1-14.1zM476 138.7c0.8-0.8 1.9-1.3 3.1-1.3 1.2 0 2.3 0.5 3.1 1.3 1.7 1.7 1.7 4.5 0 6.3L468 159.2c-0.8 0.8-1.9 1.3-3.1 1.3-1.2 0-2.3-0.5-3.1-1.3-0.8-0.8-1.3-1.9-1.3-3.1 0-1.2 0.5-2.3 1.3-3.1l14.2-14.3zM479.2 123c-1.2 0-2.3-0.5-3.1-1.3l-14.2-14.2c-0.8-0.8-1.3-1.9-1.3-3.1 0-1.2 0.5-2.3 1.3-3.1 1.7-1.7 4.5-1.7 6.3 0l14.2 14.2c1.7 1.7 1.7 4.5 0 6.3-0.9 0.8-2.1 1.2-3.2 1.2zM505.6 138.7l14.2 14.2c0.8 0.8 1.3 2 1.3 3.1s-0.5 2.3-1.3 3.1c-0.8 0.8-1.9 1.3-3.1 1.3-1.2 0-2.3-0.5-3.1-1.3L499.3 145c-1.7-1.7-1.7-4.5 0-6.3 1.7-1.6 4.6-1.6 6.3 0zM502.8 130.2c0-2.4 2-4.4 4.4-4.4h20.1c2.4 0 4.4 2 4.4 4.4 0 2.4-2 4.4-4.4 4.4h-20.1c-2.4 0.1-4.4-1.9-4.4-4.4zM454.3 125.8h20.1c2.4 0 4.4 2 4.4 4.4 0 2.4-2 4.4-4.4 4.4h-20.1c-2.4 0-4.4-2-4.4-4.4-0.1-2.4 1.9-4.4 4.4-4.4zM490.8 89.3c2.4 0 4.4 2 4.4 4.4v20.1c0 2.4-2 4.4-4.4 4.4-2.4 0-4.4-2-4.4-4.4V93.7c0-2.4 2-4.4 4.4-4.4zM490.8 142.3c2.4 0 4.4 2 4.4 4.4v20.1c0 2.4-2 4.4-4.4 4.4-2.4 0-4.4-2-4.4-4.4v-20.1c0-2.4 2-4.4 4.4-4.4z" fill="#FAEE00" p-id="6307"></path><path d="M131.9 465c1.7-1.7 4.5-1.7 6.3 0 0.8 0.8 1.3 2 1.3 3.1s-0.5 2.3-1.3 3.1L124 485.5c-0.8 0.8-1.9 1.3-3.1 1.3s-2.3-0.5-3.1-1.3c-1.7-1.7-1.7-4.5 0-6.3l14.1-14.2zM94.5 502.5c0.8-0.8 1.9-1.3 3.1-1.3 1.2 0 2.3 0.5 3.1 1.3 1.7 1.7 1.7 4.5 0 6.3L86.5 523c-0.8 0.8-1.9 1.3-3.1 1.3-1.2 0-2.3-0.5-3.1-1.3-0.8-0.8-1.3-1.9-1.3-3.1s0.5-2.3 1.3-3.1l14.2-14.3zM97.6 486.8c-1.2 0-2.3-0.5-3.1-1.3l-14.2-14.2c-0.8-0.8-1.3-1.9-1.3-3.1s0.5-2.3 1.3-3.1c1.7-1.7 4.5-1.7 6.3 0l14.2 14.2c1.7 1.7 1.7 4.5 0 6.3-0.9 0.7-2 1.2-3.2 1.2zM124 502.5l14.2 14.2c0.8 0.8 1.3 2 1.3 3.1s-0.5 2.3-1.3 3.1c-0.8 0.8-1.9 1.3-3.1 1.3-1.2 0-2.3-0.5-3.1-1.3l-14.2-14.2c-1.7-1.7-1.7-4.5 0-6.3 1.6-1.6 4.5-1.6 6.2 0.1zM121.3 494c0-2.4 2-4.4 4.4-4.4h20.1c2.4 0 4.4 2 4.4 4.4s-2 4.4-4.4 4.4h-20.1c-2.5 0-4.4-2-4.4-4.4zM72.7 489.6h20.1c2.4 0 4.4 2 4.4 4.4s-2 4.4-4.4 4.4H72.7c-2.4 0-4.4-2-4.4-4.4s2-4.4 4.4-4.4zM109.2 453c2.4 0 4.4 2 4.4 4.4v20.1c0 2.4-2 4.4-4.4 4.4s-4.4-2-4.4-4.4v-20.1c0-2.4 2-4.4 4.4-4.4zM109.2 506c2.4 0 4.4 2 4.4 4.4v20.1c0 2.4-2 4.4-4.4 4.4s-4.4-2-4.4-4.4v-20.1c0-2.4 2-4.4 4.4-4.4z" fill="#F8B62D" p-id="6308"></path><path d="M912.2 957.6h-28.5c-6.6 0-12-5.4-12-12s5.4-12 12-12h28.5c6.6 0 12 5.4 12 12s-5.4 12-12 12zM149.5 957.6H113c-6.6 0-12-5.4-12-12s5.4-12 12-12h36.5c6.6 0 12 5.4 12 12s-5.4 12-12 12zM848.3 957.6H189.8c-6.6 0-12-5.4-12-12s5.4-12 12-12h658.5c6.6 0 12 5.4 12 12s-5.4 12-12 12z" fill="#3E3A39" p-id="6309"></path></svg>